HIERARCHY
ROOT Hips
{
	OFFSET 0.00000 0.00000 0.00000
	CHANNELS 6 Xposition Yposition Zposition Zrotation Yrotation Xrotation 
	JOINT LHipJoint
	{
		OFFSET 0 0 0
		CHANNELS 3 Zrotation Yrotation Xrotation
		JOINT LeftHip
		{
			OFFSET 1.75344 -1.53157 0.77399
			CHANNELS 3 Zrotation Yrotation Xrotation
			JOINT LeftKnee
			{
				OFFSET 2.25415 -6.19323 0.00000
				CHANNELS 3 Zrotation Yrotation Xrotation
				JOINT LeftAnkle
				{
					OFFSET 2.30342 -6.32861 0.00000
					CHANNELS 3 Zrotation Yrotation Xrotation
					JOINT LeftToe
					{
						OFFSET 0.10958 -0.30108 1.49206
						CHANNELS 3 Zrotation Yrotation Xrotation
						End Site
						{
							OFFSET 0.00000 -0.00000 0.77783
						}
					}
				}
			}
		}
	}
	JOINT RHipJoint
	{
		OFFSET 0 0 0
		CHANNELS 3 Zrotation Yrotation Xrotation
		JOINT RightHip
		{
			OFFSET -1.81912 -1.53156 0.77399
			CHANNELS 3 Zrotation Yrotation Xrotation
			JOINT RightKnee
			{
				OFFSET -2.22882 -6.12365 0.00000
				CHANNELS 3 Zrotation Yrotation Xrotation
				JOINT RightAnkle
				{
					OFFSET -2.21943 -6.09785 0.00000
					CHANNELS 3 Zrotation Yrotation Xrotation
					JOINT RightToe
					{
						OFFSET -0.18931 -0.52012 1.59379
						CHANNELS 3 Zrotation Yrotation Xrotation
						End Site
						{
							OFFSET -0.00000 -0.00000 0.84686
						}
					}
				}
			}
		}
	}
	JOINT lowerback
	{
		OFFSET 0 0 0
		CHANNELS 3 Zrotation Yrotation Xrotation
		JOINT Chest
		{
			OFFSET -0.00200 1.66634 -0.14248
			CHANNELS 3 Zrotation Yrotation Xrotation
			JOINT Chest2
			{
				OFFSET -0.00875 1.64542 0.09514
				CHANNELS 3 Zrotation Yrotation Xrotation
				JOINT lowerneck
				{
					OFFSET 0 0 0
					CHANNELS 3 Zrotation Yrotation Xrotation
					JOINT Neck
					{
						OFFSET 0.02257 1.59605 0.00839
						CHANNELS 3 Zrotation Yrotation Xrotation
						JOINT Head
						{
							OFFSET -0.10214 1.57530 -0.23335
							CHANNELS 3 Zrotation Yrotation Xrotation
							End Site
							{
								OFFSET -0.03588 1.60717 -0.08062
							}
						}
					}
				}
				JOINT LeftCollar
				{
					OFFSET 0 0 0
					CHANNELS 3 Zrotation Yrotation Xrotation
					JOINT LeftShoulder
					{
						OFFSET 2.54983 1.10186 0.40078
CHANNELS 3 Zrotation Xrotation Yrotation
						JOINT LeftElbow
						{
OFFSET 0 -4.288400 0.000000
CHANNELS 3 Zrotation Xrotation Yrotation
							JOINT LeftWrist
							{
OFFSET 0 -3.065520 -0.000000
CHANNELS 3 Zrotation Xrotation Yrotation
								JOINT lhand
								{
									OFFSET 0 0 0
CHANNELS 3 Zrotation Xrotation Yrotation
									JOINT LFingers
									{
OFFSET 0 -0.753040 0.000000
CHANNELS 3 Zrotation Xrotation Yrotation
										End Site
										{
OFFSET 0 -0.607120 0.000000
										}
									}
								}
								JOINT LThumb
								{
OFFSET 0 0.000000 0.000000
CHANNELS 3 Zrotation Xrotation Yrotation
									End Site
									{
OFFSET 0 -0.616390 0.616390
									}
								}
							}
						}
					}
				}
				JOINT RightCollar
				{
					OFFSET 0 0 0
					CHANNELS 3 Zrotation Yrotation Xrotation
					JOINT RightShoulder
					{
						OFFSET -2.60909 1.35448 0.21802
CHANNELS 3 Zrotation Xrotation Yrotation
						JOINT RightElbow
						{
OFFSET 0 -4.521720 -0.000000
CHANNELS 3 Zrotation Xrotation Yrotation
							JOINT RightWrist
							{
OFFSET 0 -2.891400 0.000000
CHANNELS 3 Zrotation Xrotation Yrotation
								JOINT rhand
								{
									OFFSET 0 0 0
CHANNELS 3 Zrotation Xrotation Yrotation
									JOINT RFingers
									{
OFFSET 0 -0.680540 0.000000
CHANNELS 3 Zrotation Xrotation Yrotation
										End Site
										{
OFFSET 0 -0.548670 0.000000
										}
									}
								}
								JOINT RThumb
								{
OFFSET 0 0.000000 0.000000
CHANNELS 3 Zrotation Xrotation Yrotation
									End Site
									{
OFFSET 0 -0.557050 0.557050
									}
								}
							}
						}
					}
				}
			}
		}
	}
}
MOTION
Frames: 4
Frame Time: 0.008333333333333333
8.442600 15.121500 42.294000 -179.490000 -11.493600 -179.873000 0.000000 0.000000 0.000000 -26.387300 -25.670100 -2.397400 2.602300 10.021600 29.046800 1.768900 1.828000 -25.850700 1.422900 -7.543400 -21.335600 0.000000 0.000000 0.000000 24.082900 8.475900 -5.187300 -2.554400 -9.936100 28.770200 -0.902300 -20.359700 -34.562200 -0.335100 -3.719900 10.290000 1.363400 2.785900 4.107000 -0.561200 3.761300 -0.176800 -1.563400 1.853900 -2.355000 8.890400 16.248700 -0.955100 -5.557400 21.649700 0.448800 -2.486700 10.799600 1.965700 -0.000000 0.000000 0.000000 5.603800 5.546400 -44.512200 21.078000 -31.919300 6.091100 2.082300 10.333800 36.985900 0.000000 0.000000 0.000000 -7.125000 0.000000 0.000000 -16.796200 -5.647900 -19.174000 -0.000000 0.000000 0.000000 -5.553800 6.818500 51.207200 -18.445000 -28.723200 -4.761200 -12.858000 24.159800 53.510600 0.000000 0.000000 0.000000 7.125000 0.000000 -0.000000 68.466700 76.199100 -54.733300
8.442340 15.121019 42.298986 -180.012576 -11.478585 -179.978309 0.000000 0.000000 0.000000 -27.044322 -25.496123 -1.904856 2.506257 9.849305 28.490088 1.741655 1.869797 -25.672893 1.561765 -7.886361 -22.369426 0.000000 0.000000 0.000000 23.577634 8.652352 -5.167747 -2.645300 -10.097452 29.292797 -0.968876 -20.536190 -35.130031 -0.364808 -3.879032 10.736768 0.803658 2.811053 4.535381 -0.722511 3.761553 -0.123590 -1.439861 1.856184 -2.565231 9.137685 16.345156 -0.817331 -5.599229 21.787591 0.441272 -2.534763 10.870754 1.985167 0.000000 0.000000 0.000000 5.654767 5.474278 -44.527573 20.950866 -31.770646 6.024192 3.266692 10.107784 37.752459 0.000000 0.000000 0.000000 -7.125000 0.000000 0.000000 -16.225491 -6.508536 -18.684728 0.000000 0.000000 0.000000 -5.507521 6.729876 51.206745 -18.409661 -28.678514 -4.744191 -11.218950 23.019593 53.796477 0.000000 0.000000 0.000000 7.125000 0.000000 0.000000 70.162728 75.644303 -55.700276
8.441329 15.116485 42.296148 -179.949346 -11.525297 -179.899336 0.000000 0.000000 0.000000 -26.929935 -25.558271 -2.023076 2.505328 9.847532 28.484364 1.731817 1.835397 -25.588953 1.489483 -7.710084 -21.836886 0.000000 0.000000 0.000000 23.601886 8.529706 -5.358432 -2.655415 -10.115201 29.350498 -0.958476 -20.363709 -34.884138 -0.377087 -3.944092 10.919380 0.747691 2.750147 4.453937 -0.664498 3.678555 -0.080430 -1.338057 1.816866 -2.484866 9.312544 16.344251 -0.532969 -6.016779 21.811113 0.059763 -2.726356 10.882123 1.888407 0.000000 0.000000 0.000000 5.515650 5.327668 -44.517955 20.895129 -31.705670 5.994724 3.753077 9.915863 37.532763 0.000000 0.000000 0.000000 -7.125000 0.000000 0.000000 -15.961270 -6.344904 -18.316847 0.000000 0.000000 0.000000 -5.629769 6.663728 51.556255 -18.475861 -28.762120 -4.776026 -12.337408 23.261140 53.484167 0.000000 0.000000 0.000000 7.125000 0.000000 0.000000 68.549143 75.992260 -54.584926
8.438364 15.114907 42.291450 -180.152980 -11.546893 -179.935913 0.000000 0.000000 0.000000 -27.174148 -25.346036 -1.911654 2.479344 9.800203 28.332231 1.703757 1.912516 -25.417953 1.506448 -7.751277 -21.961494 0.000000 0.000000 0.000000 23.381633 8.476630 -5.361635 -2.695785 -10.185542 29.579689 -1.045411 -20.002328 -34.982624 -0.427080 -4.194045 11.623140 0.515541 2.748810 4.525410 -0.728946 3.660167 0.004995 -1.274870 1.809541 -2.447794 8.901808 16.464355 -0.495267 -5.515323 21.957775 -0.135524 -2.525998 10.955348 1.709669 0.000000 0.000000 0.000000 5.565795 5.163419 -44.722182 20.841655 -31.643070 5.966653 4.028365 9.566409 37.913330 0.000000 0.000000 0.000000 -7.125000 0.000000 0.000000 -15.841797 -6.740992 -18.266354 0.000000 0.000000 0.000000 -5.595914 6.743379 51.273528 -18.509925 -28.805238 -4.792427 -12.076949 23.740822 53.213011 0.000000 0.000000 0.000000 7.125000 0.000000 0.000000 67.585735 75.817737 -53.510036
